<svg id="Layer_1" data-name="Layer 1" xmlns="http://www.w3.org/2000/svg" viewBox="0 0 907.25 909.04"><defs><style>.cls-1{fill:#ca08fb;}</style></defs><title>Ostello cares logo</title><polygon class="cls-1" points="0 326.08 577.24 326.08 577.24 909.04 475.51 864.46 473.23 438.1 49.15 434.67 0 326.08"/><path class="cls-1" d="M273.83,363.37C284.38,344.25,347.27,234.55,483,199.91c14.95-3.81,171.31-40.81,296,69.73C909.79,385.48,884.06,555.47,881.94,568c-26.81,158.26-159.33,230.74-174.89,238.9V925.75c212.29-90.53,325.61-316.16,274.34-521.23C934.18,215.73,757.82,85.77,583.68,76.66c-123.29-6.44-220.69,49-265.27,79.82-105.92,73.25-149.75,171-164.6,209.17Z" transform="translate(-86.37 -76.15)"/><path class="cls-1" d="M240.69,548.54c4,31.12,18,105.07,76.58,173.75,77.11,90.33,178.15,109,205.75,113.16V944c-35.22-3.92-173-23.43-281.19-142.88-91.11-100.6-108-213.29-112-252.62Z" transform="translate(-86.37 -76.15)"/></svg>