<svg width="143" height="143" viewBox="0 0 143 143" fill="none" xmlns="http://www.w3.org/2000/svg">
<path d="M142.473 71.6701C142.473 110.789 110.761 142.501 71.6417 142.501C32.5227 142.501 0.810547 110.789 0.810547 71.6701C0.810547 32.5511 32.5227 0.838867 71.6417 0.838867C110.761 0.838867 142.473 32.5511 142.473 71.6701Z" fill="white"/>
<path fill-rule="evenodd" clip-rule="evenodd" d="M71.6391 109.097C92.309 109.097 109.065 92.3412 109.065 71.6713C109.065 51.0014 92.309 34.2452 71.6391 34.2452C50.9692 34.2452 34.2129 51.0014 34.2129 71.6713C34.2129 92.3412 50.9692 109.097 71.6391 109.097ZM71.6391 122.228C99.561 122.228 122.196 99.5932 122.196 71.6713C122.196 43.7494 99.561 21.1143 71.6391 21.1143C43.7172 21.1143 21.082 43.7494 21.082 71.6713C21.082 99.5932 43.7172 122.228 71.6391 122.228Z" fill="#E3CEFA"/>
<path d="M19.6756 75.0115L14.2852 64.2285H78.7005V128.387L67.1111 123.535V75.0115H19.6756Z" fill="#E3CEFA"/>
<path fill-rule="evenodd" clip-rule="evenodd" d="M46.4926 79.243H14.6699V74.9502H46.4926V79.243Z" fill="white"/>
<path fill-rule="evenodd" clip-rule="evenodd" d="M46.1079 64.2264H14.2852V59.9336H46.1079V64.2264Z" fill="white"/>
<path fill-rule="evenodd" clip-rule="evenodd" d="M78.7033 128.386L78.7033 106.188L82.9961 106.188L82.9961 128.386L78.7033 128.386Z" fill="white"/>
<path fill-rule="evenodd" clip-rule="evenodd" d="M62.7892 125.821L62.7892 103.622L67.082 103.622L67.082 125.821L62.7892 125.821Z" fill="white"/>
</svg>
